<svg xmlns="http://www.w3.org/2000/svg" viewBox="0 0 462.69 389.51"><defs><style>.cls-1,.cls-2{fill:#44d9ff;}.cls-2{font-size:100px;font-family:JosefinSans-BoldItalic, Josefin Sans;font-weight:700;font-style:italic;}</style></defs><g id="Capa_2" data-name="Capa 2"><g id="Capa_1-2" data-name="Capa 1"><path class="cls-1" d="M134.58,1.46c-11.41,6.77-33.91,32.61-34.12,39.39V52.07c0,14.22,13.29,26.71,25.36,26.71,14.49,0,26.56-12,26.56-26.26a26.33,26.33,0,0,0,26.15,26.26c14.49,0,25.78-12,25.78-26.26,0,14.26,12.39,26.26,26.88,26.26h.27c14.49,0,26.88-12,26.88-26.26,0,14.26,11.29,26.26,25.78,26.26a26.33,26.33,0,0,0,26.15-26.26c0,14.26,12.07,26.26,26.56,26.26,12.07,0,25.36-12.49,25.36-26.71V40.85C362,34.07,339.48,8.23,328.07,1.46,292.59.21,268,0,231.32,0s-86.64.58-96.74,1.46Zm69.54,70.63a29.73,29.73,0,0,1-5.1,6.56,30.39,30.39,0,0,1-42.51,0,28.39,28.39,0,0,1-4.86-6.44h0a30.48,30.48,0,0,1-5.28,6.44,30.4,30.4,0,0,1-21.28,8.66,9.32,9.32,0,0,1-2.87-.56c-1.17,12.13-1.66,23.72-1.83,32.17v0c0,4.29,0,7.82-.06,12.72.22,25.45-2.52,82.49,11.22,96.51,21.3,5,60.48,7.23,99.79,7.24h0c39.31,0,78.49-2.28,99.79-7.24,13.74-14,11-71.06,11.22-96.51,0-4.9,0-8.43-.06-12.72v0c-.17-8.45-.66-20.05-1.83-32.18a9,9,0,0,1-2.87.57A32.07,32.07,0,0,1,311,72.22h0a28.39,28.39,0,0,1-4.86,6.44,30.41,30.41,0,0,1-42.51,0,29.55,29.55,0,0,1-5.1-6.57,29.64,29.64,0,0,1-5,6.57,30.4,30.4,0,0,1-21.28,8.66l-.87,0h0l-.86,0a30.36,30.36,0,0,1-21.28-8.66,29.64,29.64,0,0,1-5.05-6.57Zm-21.85,28.25h0c8.66,0,16.35,0,25.87,10.4a220,220,0,0,1,23.17-1.17h0a220,220,0,0,1,23.17,1.17c9.52-10.4,17.21-10.38,25.87-10.4h0c4.09,0,20.44,0,31.84,32l12.24,43.91c9.07,32.67-2.91,33.46-17.84,33.49-22.16-.82-34.42-16.91-34.42-33a259.94,259.94,0,0,1-40.87,3h0a259.85,259.85,0,0,1-40.87-3c0,16.08-12.27,32.17-34.42,33-14.94,0-26.91-.82-17.84-33.49l12.24-43.91c11.4-32,27.75-32,31.84-32Zm49,25.16h0s-23.32,21.42-27.51,29l15.26-.61v13.31c0,.62,6.12.37,12.25.08h0c6.12.29,12.25.54,12.25-.08V153.92l15.26.61c-4.19-7.61-27.51-29-27.51-29h0Z"/><text class="cls-2" transform="translate(0 360.71)">My Itch.io</text></g></g></svg>