<svg xmlns="http://www.w3.org/2000/svg" viewBox="0 0 559.09 414.67"><defs><style>.cls-1{font-size:100px;fill:#44d9ff;font-family:JosefinSans-BoldItalic, Josefin Sans;font-weight:700;font-style:italic;}.cls-2{letter-spacing:-0.09em;}.cls-3{letter-spacing:0em;}.cls-4{fill:none;stroke:#44d9ff;stroke-miterlimit:10;stroke-width:10px;}</style></defs><g id="Capa_2" data-name="Capa 2"><g id="Capa_1-2" data-name="Capa 1"><text class="cls-1" transform="translate(0 385.87)">My <tspan class="cls-2" x="178.8" y="0">W</tspan><tspan class="cls-3" x="272.9" y="0">ebsite</tspan></text><circle class="cls-4" cx="279.22" cy="125.5" r="120.5"/><path class="cls-4" d="M279.22,246c-39.11,0-70.82-53.95-70.82-120.5S240.11,5,279.22,5"/><path class="cls-4" d="M279.22,246V5"/><path class="cls-4" d="M399.72,125.5h-241"/><path class="cls-4" d="M279.22,246C318.33,246,350,192.05,350,125.5S318.33,5,279.22,5"/><path class="cls-4" d="M191,46.75c14.27,8.48,39.63,22.73,88.52,22.73S355.33,54.55,368,46.75"/><path class="cls-4" d="M191,201.61c14.27-8.48,39.63-22.73,88.52-22.73S355.33,193.8,368,201.61"/></g></g></svg>