<svg xmlns="http://www.w3.org/2000/svg" viewBox="0 0 865 471"><defs><style>.cls-1{font-size:100px;fill:#44d9ff;font-family:JosefinSans-BoldItalic, Josefin Sans;font-weight:700;font-style:italic;}.cls-2{letter-spacing:-0.09em;}.cls-3{letter-spacing:0em;}.cls-4,.cls-5{fill:none;stroke-miterlimit:10;}.cls-4{stroke:#44d9ff;stroke-width:10px;}.cls-5{stroke:#000;opacity:0.01;}</style></defs><g id="Capa_2" data-name="Capa 2"><g id="Capa_1-2" data-name="Capa 1"><text class="cls-1" transform="translate(153.78 417.87)">My <tspan class="cls-2" x="178.8" y="0">W</tspan><tspan class="cls-3" x="272.9" y="0">ebsite</tspan></text><circle class="cls-4" cx="433" cy="157.5" r="120.5"/><path class="cls-4" d="M433,278c-39.11,0-70.82-53.95-70.82-120.5S393.89,37,433,37"/><path class="cls-4" d="M433,278V37"/><path class="cls-4" d="M553.5,157.5h-241"/><path class="cls-4" d="M433,278c39.11,0,70.82-53.95,70.82-120.5S472.11,37,433,37"/><path class="cls-4" d="M344.74,78.75c14.27,8.48,39.63,22.73,88.52,22.73s75.85-14.93,88.53-22.73"/><path class="cls-4" d="M344.74,233.61c14.27-8.48,39.63-22.73,88.52-22.73s75.85,14.92,88.53,22.73"/><rect class="cls-5" x="0.5" y="0.5" width="864" height="470"/></g></g></svg>