<svg xmlns="http://www.w3.org/2000/svg" viewBox="0 0 531.89 399.67"><defs><style>.cls-1{font-size:100px;fill:#44d9ff;font-family:JosefinSans-BoldItalic, Josefin Sans;font-weight:700;font-style:italic;}.cls-2{letter-spacing:-0.01em;}.cls-3{letter-spacing:0em;}.cls-4{fill:none;stroke:#44d9ff;stroke-miterlimit:10;stroke-width:10px;}</style></defs><g id="Capa_2" data-name="Capa 2"><g id="Capa_1-2" data-name="Capa 1"><text class="cls-1" transform="translate(0 370.87)">My <tspan class="cls-2" x="178.8" y="0">w</tspan><tspan class="cls-3" x="245.7" y="0">ebsite</tspan></text><circle class="cls-4" cx="266.22" cy="125.5" r="120.5"/><path class="cls-4" d="M266.22,246c-39.11,0-70.82-53.95-70.82-120.5S227.11,5,266.22,5"/><path class="cls-4" d="M266.22,246V5"/><path class="cls-4" d="M386.72,125.5h-241"/><path class="cls-4" d="M266.22,246C305.33,246,337,192.05,337,125.5S305.33,5,266.22,5"/><path class="cls-4" d="M178,46.75c14.27,8.48,39.63,22.73,88.52,22.73S342.33,54.55,355,46.75"/><path class="cls-4" d="M178,201.61c14.27-8.48,39.63-22.73,88.52-22.73S342.33,193.8,355,201.61"/></g></g></svg>