<svg xmlns="http://www.w3.org/2000/svg" viewBox="0 0 865 471"><defs><style>.cls-1,.cls-2{fill:#44d9ff;}.cls-2{font-size:100px;font-family:JosefinSans-BoldItalic, Josefin Sans;font-weight:700;font-style:italic;}.cls-3{fill:none;stroke:#000;stroke-miterlimit:10;opacity:0.01;}</style></defs><g id="Capa_2" data-name="Capa 2"><g id="Capa_1-2" data-name="Capa 1"><path class="cls-1" d="M335.36,43.62C324,50.4,301.45,76.24,301.24,83V94.23c0,14.22,13.29,26.72,25.36,26.72,14.49,0,26.56-12,26.56-26.27A26.34,26.34,0,0,0,379.31,121c14.49,0,25.78-12,25.78-26.27,0,14.26,12.39,26.27,26.88,26.27h.27c14.49,0,26.88-12,26.88-26.27,0,14.26,11.29,26.27,25.78,26.27a26.34,26.34,0,0,0,26.15-26.27c0,14.26,12.07,26.27,26.56,26.27,12.07,0,25.36-12.5,25.36-26.72V83c-.21-6.78-22.71-32.62-34.12-39.39-35.49-1.25-60.08-1.46-96.75-1.46s-86.64.58-96.74,1.46Zm69.54,70.63a29.73,29.73,0,0,1-5.1,6.56,30.39,30.39,0,0,1-42.51,0,28.27,28.27,0,0,1-4.86-6.43h0a30,30,0,0,1-5.29,6.44,30.36,30.36,0,0,1-21.27,8.66,9,9,0,0,1-2.87-.56c-1.17,12.13-1.66,23.72-1.84,32.17v0c0,4.29,0,7.82-.06,12.73.22,25.45-2.52,82.48,11.22,96.5,21.29,5,60.48,7.23,99.79,7.24h0c39.31,0,78.49-2.27,99.79-7.24,13.74-14,11-71.05,11.22-96.51,0-4.9,0-8.43-.06-12.72v0c-.17-8.45-.66-20-1.83-32.17a9.32,9.32,0,0,1-2.87.56,32,32,0,0,1-26.56-15.1h0a28.39,28.39,0,0,1-4.86,6.44,30.41,30.41,0,0,1-42.51,0,29.55,29.55,0,0,1-5.1-6.57,29.64,29.64,0,0,1-5.05,6.57A30.45,30.45,0,0,1,433,129.48l-.87,0h0c-.28,0-.57,0-.86,0A30.42,30.42,0,0,1,410,120.81a29.81,29.81,0,0,1-5-6.56ZM383.05,142.5v0h0c8.66,0,16.35,0,25.87,10.39a220,220,0,0,1,23.17-1.17h0a220,220,0,0,1,23.17,1.17c9.52-10.4,17.21-10.38,25.86-10.39h0v0c4.09,0,20.44,0,31.84,32l12.24,43.91c9.07,32.67-2.91,33.47-17.84,33.49-22.16-.82-34.42-16.91-34.42-33a259.94,259.94,0,0,1-40.87,3h0a259.85,259.85,0,0,1-40.87-3c0,16.08-12.27,32.17-34.42,33-14.94,0-26.91-.82-17.84-33.49l12.24-43.91c11.4-32,27.75-32,31.84-32Zm49.05,25.16h0s-23.32,21.42-27.51,29l15.26-.61v13.31c0,.62,6.12.37,12.25.08h0c6.12.29,12.25.54,12.25-.08V196.08l15.26.61c-4.19-7.61-27.51-29-27.51-29h0Z"/><text class="cls-2" transform="translate(192.78 426.87)">My Itch.io</text><rect class="cls-3" x="0.5" y="0.5" width="864" height="470"/></g></g></svg>