<svg xmlns="http://www.w3.org/2000/svg" viewBox="0 0 865 557"><defs><style>.cls-1,.cls-2{fill:#44d9ff;}.cls-2{font-size:100px;font-family:JosefinSans-BoldItalic, Josefin Sans;font-weight:700;font-style:italic;}.cls-3,.cls-4{fill:none;stroke-miterlimit:10;}.cls-3{stroke:#000;opacity:0.01;}.cls-4{stroke:#44d9ff;stroke-width:10px;}</style></defs><g id="Capa_2" data-name="Capa 2"><g id="Capa_1-2" data-name="Capa 1"><path class="cls-1" d="M335.9,79.49c-11.68,6.93-34.68,33.36-34.9,40.29v11.48c0,14.54,13.59,27.32,25.94,27.32,14.82,0,27.17-12.28,27.17-26.86a26.93,26.93,0,0,0,26.74,26.86c14.83,0,26.37-12.28,26.37-26.86,0,14.58,12.68,26.86,27.5,26.86H435c14.82,0,27.5-12.28,27.5-26.86,0,14.58,11.54,26.86,26.36,26.86a26.94,26.94,0,0,0,26.75-26.86c0,14.58,12.35,26.86,27.17,26.86,12.34,0,25.94-12.78,25.94-27.32V119.78c-.22-6.93-23.23-33.36-34.9-40.29-36.3-1.27-61.46-1.5-99-1.49s-88.62.59-99,1.49ZM407,151.73a30.62,30.62,0,0,1-5.22,6.72,31.09,31.09,0,0,1-43.48,0,29.24,29.24,0,0,1-5-6.58h0a32.83,32.83,0,0,1-27.17,15.44,9.54,9.54,0,0,1-2.94-.57c-1.19,12.4-1.69,24.26-1.87,32.91v0c0,4.39-.05,8-.07,13,.23,26-2.58,84.37,11.48,98.71,21.78,5.08,61.86,7.39,102.07,7.41h0c40.21,0,80.29-2.33,102.07-7.41,14.05-14.34,11.25-72.68,11.47-98.71,0-5,0-8.62-.06-13v0c-.18-8.65-.68-20.51-1.88-32.92a9.14,9.14,0,0,1-2.93.58,32.77,32.77,0,0,1-27.17-15.44h0a28.88,28.88,0,0,1-5,6.58,31.08,31.08,0,0,1-43.48,0,30.29,30.29,0,0,1-5.21-6.71,30.12,30.12,0,0,1-5.17,6.71,31.09,31.09,0,0,1-21.77,8.87l-.88,0h0l-.88,0a31.12,31.12,0,0,1-21.77-8.86,30.4,30.4,0,0,1-5.17-6.72Zm-22.35,28.9v0h0c8.85,0,16.72,0,26.46,10.63a221.87,221.87,0,0,1,23.7-1.19h0a221.87,221.87,0,0,1,23.7,1.19c9.74-10.64,17.6-10.62,26.45-10.63h0v0c4.18,0,20.91,0,32.56,32.74l12.52,44.91c9.28,33.42-3,34.23-18.25,34.26-22.65-.84-35.2-17.3-35.2-33.75a265.26,265.26,0,0,1-41.8,3.09h0A265.39,265.39,0,0,1,393,258.79c0,16.45-12.54,32.91-35.2,33.75-15.28,0-27.53-.84-18.25-34.26l12.52-44.91c11.66-32.73,28.39-32.73,32.57-32.73Zm50.17,25.73h0S411,228.28,406.71,236.06l15.61-.62v13.61c0,.63,6.26.37,12.53.08h0c6.26.29,12.53.55,12.53-.08V235.44l15.6.62c-4.28-7.78-28.13-29.69-28.13-29.69h0Z"/><text class="cls-2" transform="translate(204.78 467.87)">My Itch.io</text><rect class="cls-3" x="0.5" y="41.5" width="864" height="470"/><rect class="cls-4" x="63" y="5" width="739" height="547" rx="77.4"/></g></g></svg>